<mxfile host="Electron" modified="2024-06-12T07:47:27.552Z" agent="Mozilla/5.0 (Windows NT 10.0; Win64; x64) AppleWebKit/537.36 (KHTML, like Gecko) draw.io/24.5.3 Chrome/124.0.6367.207 Electron/30.0.6 Safari/537.36" etag="CjyGJROdXbU5zlX9EJFB" version="24.5.3" type="device">
  <diagram name="Dynamic File Buffer" id="LZtmZ7ocjexzX-RgR4TU">
    <mxGraphModel dx="2074" dy="1205" grid="1" gridSize="10" guides="1" tooltips="1" connect="1" arrows="1" fold="1" page="0" pageScale="1" pageWidth="1100" pageHeight="850" background="#141414" math="0" shadow="0">
      <root>
        <mxCell id="0" />
        <mxCell id="1" parent="0" />
      </root>
    </mxGraphModel>
  </diagram>
</mxfile>
